<?xml version="1.0" encoding="UTF-8"?>
<svg xmlns="http://www.w3.org/2000/svg" width="1600" height="500" viewBox="0 0 1600 500" role="img" aria-label="ERYLA METYLA APRENDIZAJE">
<defs>
  <mask id="logo-outer-holes">
    <rect x="0" y="0" width="320" height="310" fill="white"/>
    <circle cx="160" cy="25" r="9" fill="black"/><circle cx="268" cy="87.5" r="9" fill="black"/>
    <circle cx="268" cy="212.5" r="9" fill="black"/><circle cx="160" cy="275" r="9" fill="black"/>
    <circle cx="52" cy="212.5" r="9" fill="black"/><circle cx="52" cy="87.5" r="9" fill="black"/>
  </mask>
  <mask id="logo-inner-holes">
    <rect x="0" y="0" width="320" height="310" fill="white"/>
    <circle cx="100" cy="150" r="7" fill="black"/><circle cx="205" cy="108" r="7" fill="black"/><circle cx="210" cy="205" r="7" fill="black"/>
  </mask>
</defs>
<g transform="translate(45 65) scale(1.22)">
  <g mask="url(#logo-outer-holes)" fill="none" stroke="#FE5E01" stroke-width="15" stroke-linecap="round" stroke-linejoin="round">
    <path d="M160 25L268 87.5V212.5L160 275L52 212.5V87.5Z"/>
    <g fill="#FE5E01" stroke="none">
      <circle cx="160" cy="25" r="21"/><circle cx="268" cy="87.5" r="21"/>
      <circle cx="268" cy="212.5" r="21"/><circle cx="160" cy="275" r="21"/>
      <circle cx="52" cy="212.5" r="21"/><circle cx="52" cy="87.5" r="21"/>
    </g>
  </g>
  <g mask="url(#logo-inner-holes)" fill="none" stroke="#6A35D6" stroke-width="14" stroke-linecap="round" stroke-linejoin="round">
    <path d="M100 150H160L205 108M160 150L210 205"/>
    <g fill="#6A35D6" stroke="none"><circle cx="100" cy="150" r="18"/><circle cx="205" cy="108" r="18"/><circle cx="210" cy="205" r="18"/></g>
  </g>
  <circle cx="160" cy="150" r="20" fill="#6A35D6"/>
</g>
<g transform="translate(485 175) scale(2.35)" fill="none" stroke="#FE5E01" stroke-width="6.5" stroke-linecap="round" stroke-linejoin="round">
  <path d="M3 3V42M3 3H30M3 22H27M3 42H30"/>
  <path d="M43 42V3H58Q72 3 72 13Q72 22 58 22H43M58 22L76 42"/>
  <path d="M82 3L95 22L108 3M95 22V42"/>
  <path d="M119 3V42H143"/>
  <path d="M149 42L164 3L179 42"/>
  <g fill="#FE5E01" stroke="none"><circle cx="3" cy="22" r="4"/><circle cx="43" cy="22" r="4"/><circle cx="58" cy="22" r="4"/><circle cx="119" cy="42" r="4"/></g>
  <polygon points="95,16.5 100,19.2 100,24.8 95,27.5 90,24.8 90,19.2" fill="#F5F6F7" stroke="#FE5E01" stroke-width="2.7"/>
  <path d="M153 27L157 25H171L175 27L171 29H157Z" fill="#FE5E01" stroke="none"/>
</g>
<line x1="945" y1="125" x2="945" y2="345" stroke="#20252B" stroke-opacity="0.18" stroke-width="2"/>
<text x="1000" y="235" fill="#4B2E83" font-family="Bahnschrift, Segoe UI, Arial, sans-serif" font-size="86" font-weight="700" letter-spacing="3">METYLA</text>
<text x="1005" y="300" fill="#6A35D6" font-family="Segoe UI, Arial, sans-serif" font-size="25" font-weight="600" letter-spacing="10">APRENDIZAJE</text>
</svg>
